<svg width="40" height="36" viewBox="0 0 40 36" fill="none" xmlns="http://www.w3.org/2000/svg">
<g id="g-drive">
<path id="Vector" d="M20.0036 11.7891L13.947 1.10063C14.1481 0.895884 14.3795 0.761589 14.6109 0.671326C12.8248 1.25914 12.0053 3.26475 12.0053 3.26475L0.940912 22.7859C0.785228 23.3979 0.741978 23.9505 0.761439 24.437H12.8378L20.0036 11.7891Z" fill="#34A853"/>
<path id="Vector_2" d="M20.0034 11.7891L27.1692 24.437H39.2455C39.265 23.9505 39.2217 23.3979 39.066 22.7859L28.0016 3.26475C28.0016 3.26475 27.18 1.25914 25.3961 0.671326C25.6253 0.761589 25.8588 0.895884 26.0599 1.10063L20.0034 11.7891Z" fill="#FBBC05"/>
<path id="Vector_3" d="M20.0034 11.7896L26.0599 1.10106C25.8588 0.896314 25.6253 0.762019 25.3961 0.671756C25.1323 0.585896 24.8491 0.528655 24.542 0.513245H24.222H15.7848H15.4648C15.1599 0.526454 14.8745 0.583694 14.6107 0.671756C14.3815 0.762019 14.1479 0.896314 13.9468 1.10106L20.0034 11.7896Z" fill="#188038"/>
<path id="Vector_4" d="M12.8398 24.4371L6.8524 35.0045C6.8524 35.0045 6.65346 34.9076 6.38318 34.7073C7.23296 35.3611 8.05895 35.4998 8.05895 35.4998H31.5738C32.8711 35.4998 33.1414 35.0045 33.1414 35.0045C33.1457 35.0023 33.1479 35.0001 33.1522 34.9979L27.1692 24.4371H12.8398Z" fill="#4285F4"/>
<path id="Vector_5" d="M12.8403 24.4371H0.763916C0.82446 25.8725 1.4472 26.7113 1.4472 26.7113L1.90128 27.4994C1.93371 27.5457 1.95317 27.5721 1.95317 27.5721L2.94133 29.3069L5.15983 33.1684C5.2247 33.3247 5.30038 33.4678 5.38039 33.6043C5.41066 33.6505 5.43877 33.7012 5.4712 33.7452C5.47985 33.7584 5.4885 33.7716 5.49715 33.7848C5.77176 34.1723 6.0788 34.4717 6.38585 34.7073C6.65613 34.9098 6.85506 35.0045 6.85506 35.0045L12.8403 24.4371Z" fill="#1967D2"/>
<path id="Vector_6" d="M27.1692 24.4371H39.2455C39.185 25.8725 38.5623 26.7113 38.5623 26.7113L38.1082 27.4994C38.0757 27.5457 38.0563 27.5721 38.0563 27.5721L37.0681 29.3069L34.8496 33.1684C34.7847 33.3247 34.7091 33.4678 34.6291 33.6043C34.5988 33.6505 34.5707 33.7012 34.5382 33.7452C34.5296 33.7584 34.5209 33.7716 34.5123 33.7848C34.2377 34.1723 33.9306 34.4717 33.6236 34.7073C33.3533 34.9098 33.1544 35.0045 33.1544 35.0045L27.1692 24.4371Z" fill="#EA4335"/>
</g>
</svg>
